solid CAP_PC_10X10-L
facet normal 0 0 1
  outer loop
    vertex 0 0 396
    vertex -192.85 0 396
    vertex -189.144441325763 -37.6231686008103 396
  endloop
endfacet
facet normal 0 0 1
  outer loop
    vertex 0 0 396
    vertex -189.144441325763 -37.6231686008103 396
    vertex -178.170167844802 -73.8004999316076 396
  endloop
endfacet
facet normal 0 0 1
  outer loop
    vertex 0 0 396
    vertex -178.170167844802 -73.8004999316076 396
    vertex -160.348914732546 -107.14171943783 396
  endloop
endfacet
facet normal 0 0 1
  outer loop
    vertex 0 0 396
    vertex -160.348914732546 -107.14171943783 396
    vertex -136.365542751826 -136.365542751826 396
  endloop
endfacet
facet normal 0 0 1
  outer loop
    vertex 0 0 396
    vertex -136.365542751826 -136.365542751826 396
    vertex -107.14171943783 -160.348914732546 396
  endloop
endfacet
facet normal 0 0 1
  outer loop
    vertex 0 0 396
    vertex -107.14171943783 -160.348914732546 396
    vertex -73.8004999316076 -178.170167844802 396
  endloop
endfacet
facet normal 0 0 1
  outer loop
    vertex 0 0 396
    vertex -73.8004999316076 -178.170167844802 396
    vertex -37.6231686008103 -189.144441325763 396
  endloop
endfacet
facet normal 0 0 1
  outer loop
    vertex 0 0 396
    vertex -37.6231686008103 -189.144441325763 396
    vertex -1.18086567607784E-14 -192.85 396
  endloop
endfacet
facet normal 0 0 1
  outer loop
    vertex 0 0 396
    vertex -1.18086567607784E-14 -192.85 396
    vertex 37.6231686008103 -189.144441325763 396
  endloop
endfacet
facet normal 0 0 1
  outer loop
    vertex 0 0 396
    vertex 37.6231686008103 -189.144441325763 396
    vertex 73.8004999316076 -178.170167844802 396
  endloop
endfacet
facet normal 0 0 1
  outer loop
    vertex 0 0 396
    vertex 73.8004999316076 -178.170167844802 396
    vertex 107.14171943783 -160.348914732546 396
  endloop
endfacet
facet normal 0 0 1
  outer loop
    vertex 0 0 396
    vertex 107.14171943783 -160.348914732546 396
    vertex 136.365542751826 -136.365542751826 396
  endloop
endfacet
facet normal 0 0 1
  outer loop
    vertex 0 0 396
    vertex 136.365542751826 -136.365542751826 396
    vertex 160.348914732546 -107.14171943783 396
  endloop
endfacet
facet normal 0 0 1
  outer loop
    vertex 0 0 396
    vertex 160.348914732546 -107.14171943783 396
    vertex 178.170167844802 -73.8004999316076 396
  endloop
endfacet
facet normal 0 0 1
  outer loop
    vertex 0 0 396
    vertex 178.170167844802 -73.8004999316076 396
    vertex 189.144441325763 -37.6231686008103 396
  endloop
endfacet
facet normal 0 0 1
  outer loop
    vertex 0 0 396
    vertex 189.144441325763 -37.6231686008103 396
    vertex 192.85 0 396
  endloop
endfacet
facet normal 0 0 1
  outer loop
    vertex 0 0 396
    vertex 192.85 0 396
    vertex 189.144441325763 37.6231686008103 396
  endloop
endfacet
facet normal 0 0 1
  outer loop
    vertex 0 0 396
    vertex 189.144441325763 37.6231686008103 396
    vertex 178.170167844802 73.8004999316076 396
  endloop
endfacet
facet normal 0 0 1
  outer loop
    vertex 0 0 396
    vertex 178.170167844802 73.8004999316076 396
    vertex 160.348914732546 107.14171943783 396
  endloop
endfacet
facet normal 0 0 1
  outer loop
    vertex 0 0 396
    vertex 160.348914732546 107.14171943783 396
    vertex 136.365542751826 136.365542751826 396
  endloop
endfacet
facet normal 0 0 1
  outer loop
    vertex 0 0 396
    vertex 136.365542751826 136.365542751826 396
    vertex 107.14171943783 160.348914732546 396
  endloop
endfacet
facet normal 0 0 1
  outer loop
    vertex 0 0 396
    vertex 107.14171943783 160.348914732546 396
    vertex 73.8004999316076 178.170167844802 396
  endloop
endfacet
facet normal 0 0 1
  outer loop
    vertex 0 0 396
    vertex 73.8004999316076 178.170167844802 396
    vertex 37.6231686008103 189.144441325763 396
  endloop
endfacet
facet normal 0 0 1
  outer loop
    vertex 0 0 396
    vertex 37.6231686008103 189.144441325763 396
    vertex 1.18086567607784E-14 192.85 396
  endloop
endfacet
facet normal 0 0 1
  outer loop
    vertex 0 0 396
    vertex 1.18086567607784E-14 192.85 396
    vertex -37.6231686008103 189.144441325763 396
  endloop
endfacet
facet normal 0 0 1
  outer loop
    vertex 0 0 396
    vertex -37.6231686008103 189.144441325763 396
    vertex -73.8004999316076 178.170167844802 396
  endloop
endfacet
facet normal 0 0 1
  outer loop
    vertex 0 0 396
    vertex -73.8004999316076 178.170167844802 396
    vertex -107.14171943783 160.348914732546 396
  endloop
endfacet
facet normal 0 0 1
  outer loop
    vertex 0 0 396
    vertex -107.14171943783 160.348914732546 396
    vertex -136.365542751826 136.365542751826 396
  endloop
endfacet
facet normal 0 0 1
  outer loop
    vertex 0 0 396
    vertex -136.365542751826 136.365542751826 396
    vertex -160.348914732546 107.14171943783 396
  endloop
endfacet
facet normal 0 0 1
  outer loop
    vertex 0 0 396
    vertex -160.348914732546 107.14171943783 396
    vertex -178.170167844802 73.8004999316076 396
  endloop
endfacet
facet normal 0 0 1
  outer loop
    vertex 0 0 396
    vertex -178.170167844802 73.8004999316076 396
    vertex -189.144441325763 37.6231686008103 396
  endloop
endfacet
facet normal 0 0 1
  outer loop
    vertex 0 0 396
    vertex -189.144441325763 37.6231686008103 396
    vertex -192.85 0 396
  endloop
endfacet
facet normal -.995184726672197 -.09801714032956 0
  outer loop
    vertex -192.85 0 396
    vertex -189.144441325763 -37.6231686008103 41.41
    vertex -189.144441325763 -37.6231686008103 396
  endloop
endfacet
facet normal -.995184726672197 -.09801714032956 0
  outer loop
    vertex -192.85 0 396
    vertex -192.85 0 41.41
    vertex -189.144441325763 -37.6231686008103 41.41
  endloop
endfacet
facet normal -.956940335732211 -.290284677254454 0
  outer loop
    vertex -189.144441325763 -37.6231686008103 396
    vertex -178.170167844802 -73.8004999316076 41.41
    vertex -178.170167844802 -73.8004999316076 396
  endloop
endfacet
facet normal -.956940335732211 -.290284677254454 0
  outer loop
    vertex -189.144441325763 -37.6231686008103 396
    vertex -189.144441325763 -37.6231686008103 41.41
    vertex -178.170167844802 -73.8004999316076 41.41
  endloop
endfacet
facet normal -.881921264348351 -.471396736826005 0
  outer loop
    vertex -178.170167844802 -73.8004999316076 396
    vertex -160.348914732546 -107.14171943783 80.8
    vertex -160.348914732546 -107.14171943783 396
  endloop
endfacet
facet normal -.881921264348351 -.471396736826005 0
  outer loop
    vertex -178.170167844802 -73.8004999316076 396
    vertex -178.170167844802 -73.8004999316076 80.8
    vertex -160.348914732546 -107.14171943783 80.8
  endloop
endfacet
facet normal -.773010453362746 -.634393284163635 0
  outer loop
    vertex -160.348914732546 -107.14171943783 396
    vertex -136.365542751826 -136.365542751826 80.8
    vertex -136.365542751826 -136.365542751826 396
  endloop
endfacet
facet normal -.773010453362746 -.634393284163635 0
  outer loop
    vertex -160.348914732546 -107.14171943783 396
    vertex -160.348914732546 -107.14171943783 80.8
    vertex -136.365542751826 -136.365542751826 80.8
  endloop
endfacet
facet normal -.634393284163635 -.773010453362746 0
  outer loop
    vertex -136.365542751826 -136.365542751826 396
    vertex -107.14171943783 -160.348914732546 80.8
    vertex -107.14171943783 -160.348914732546 396
  endloop
endfacet
facet normal -.634393284163635 -.773010453362746 0
  outer loop
    vertex -136.365542751826 -136.365542751826 396
    vertex -136.365542751826 -136.365542751826 80.8
    vertex -107.14171943783 -160.348914732546 80.8
  endloop
endfacet
facet normal -.471396736826005 -.881921264348351 0
  outer loop
    vertex -107.14171943783 -160.348914732546 396
    vertex -73.8004999316076 -178.170167844802 80.8
    vertex -73.8004999316076 -178.170167844802 396
  endloop
endfacet
facet normal -.471396736826005 -.881921264348351 0
  outer loop
    vertex -107.14171943783 -160.348914732546 396
    vertex -107.14171943783 -160.348914732546 80.8
    vertex -73.8004999316076 -178.170167844802 80.8
  endloop
endfacet
facet normal -.290284677254454 -.956940335732211 0
  outer loop
    vertex -73.8004999316076 -178.170167844802 396
    vertex -37.6231686008103 -189.144441325763 41.41
    vertex -37.6231686008103 -189.144441325763 396
  endloop
endfacet
facet normal -.290284677254454 -.956940335732211 0
  outer loop
    vertex -73.8004999316076 -178.170167844802 396
    vertex -73.8004999316076 -178.170167844802 41.41
    vertex -37.6231686008103 -189.144441325763 41.41
  endloop
endfacet
facet normal -9.80171403295601E-02 -.995184726672197 0
  outer loop
    vertex -37.6231686008103 -189.144441325763 396
    vertex -1.18086567607784E-14 -192.85 41.41
    vertex -1.18086567607784E-14 -192.85 396
  endloop
endfacet
facet normal -9.80171403295601E-02 -.995184726672197 0
  outer loop
    vertex -37.6231686008103 -189.144441325763 396
    vertex -37.6231686008103 -189.144441325763 41.41
    vertex -1.18086567607784E-14 -192.85 41.41
  endloop
endfacet
facet normal .09801714032956 -.995184726672197 0
  outer loop
    vertex -1.18086567607784E-14 -192.85 396
    vertex 37.6231686008103 -189.144441325763 41.41
    vertex 37.6231686008103 -189.144441325763 396
  endloop
endfacet
facet normal .09801714032956 -.995184726672197 0
  outer loop
    vertex -1.18086567607784E-14 -192.85 396
    vertex -1.18086567607784E-14 -192.85 41.41
    vertex 37.6231686008103 -189.144441325763 41.41
  endloop
endfacet
facet normal .290284677254454 -.956940335732211 0
  outer loop
    vertex 37.6231686008103 -189.144441325763 396
    vertex 73.8004999316076 -178.170167844802 41.41
    vertex 73.8004999316076 -178.170167844802 396
  endloop
endfacet
facet normal .290284677254454 -.956940335732211 0
  outer loop
    vertex 37.6231686008103 -189.144441325763 396
    vertex 37.6231686008103 -189.144441325763 41.41
    vertex 73.8004999316076 -178.170167844802 41.41
  endloop
endfacet
facet normal .471396736826005 -.881921264348351 0
  outer loop
    vertex 73.8004999316076 -178.170167844802 396
    vertex 107.14171943783 -160.348914732546 80.8
    vertex 107.14171943783 -160.348914732546 396
  endloop
endfacet
facet normal .471396736826005 -.881921264348351 0
  outer loop
    vertex 73.8004999316076 -178.170167844802 396
    vertex 73.8004999316076 -178.170167844802 80.8
    vertex 107.14171943783 -160.348914732546 80.8
  endloop
endfacet
facet normal .634393284163635 -.773010453362746 0
  outer loop
    vertex 107.14171943783 -160.348914732546 396
    vertex 136.365542751826 -136.365542751826 80.8
    vertex 136.365542751826 -136.365542751826 396
  endloop
endfacet
facet normal .634393284163635 -.773010453362746 0
  outer loop
    vertex 107.14171943783 -160.348914732546 396
    vertex 107.14171943783 -160.348914732546 80.8
    vertex 136.365542751826 -136.365542751826 80.8
  endloop
endfacet
facet normal .773010453362746 -.634393284163635 0
  outer loop
    vertex 136.365542751826 -136.365542751826 396
    vertex 160.348914732546 -107.14171943783 80.8
    vertex 160.348914732546 -107.14171943783 396
  endloop
endfacet
facet normal .773010453362746 -.634393284163635 0
  outer loop
    vertex 136.365542751826 -136.365542751826 396
    vertex 136.365542751826 -136.365542751826 80.8
    vertex 160.348914732546 -107.14171943783 80.8
  endloop
endfacet
facet normal .881921264348351 -.471396736826005 0
  outer loop
    vertex 160.348914732546 -107.14171943783 396
    vertex 178.170167844802 -73.8004999316076 80.8
    vertex 178.170167844802 -73.8004999316076 396
  endloop
endfacet
facet normal .881921264348351 -.471396736826005 0
  outer loop
    vertex 160.348914732546 -107.14171943783 396
    vertex 160.348914732546 -107.14171943783 80.8
    vertex 178.170167844802 -73.8004999316076 80.8
  endloop
endfacet
facet normal .956940335732211 -.290284677254454 0
  outer loop
    vertex 178.170167844802 -73.8004999316076 396
    vertex 189.144441325763 -37.6231686008103 41.41
    vertex 189.144441325763 -37.6231686008103 396
  endloop
endfacet
facet normal .956940335732211 -.290284677254454 0
  outer loop
    vertex 178.170167844802 -73.8004999316076 396
    vertex 178.170167844802 -73.8004999316076 41.41
    vertex 189.144441325763 -37.6231686008103 41.41
  endloop
endfacet
facet normal .995184726672197 -.09801714032956 0
  outer loop
    vertex 189.144441325763 -37.6231686008103 396
    vertex 192.85 0 41.41
    vertex 192.85 0 396
  endloop
endfacet
facet normal .995184726672197 -.09801714032956 0
  outer loop
    vertex 189.144441325763 -37.6231686008103 396
    vertex 189.144441325763 -37.6231686008103 41.41
    vertex 192.85 0 41.41
  endloop
endfacet
facet normal .995184726672197 .09801714032956 0
  outer loop
    vertex 192.85 0 396
    vertex 189.144441325763 37.6231686008103 41.41
    vertex 189.144441325763 37.6231686008103 396
  endloop
endfacet
facet normal .995184726672197 .09801714032956 0
  outer loop
    vertex 192.85 0 396
    vertex 192.85 0 41.41
    vertex 189.144441325763 37.6231686008103 41.41
  endloop
endfacet
facet normal .956940335732211 .290284677254454 0
  outer loop
    vertex 189.144441325763 37.6231686008103 396
    vertex 178.170167844802 73.8004999316076 41.41
    vertex 178.170167844802 73.8004999316076 396
  endloop
endfacet
facet normal .956940335732211 .290284677254454 0
  outer loop
    vertex 189.144441325763 37.6231686008103 396
    vertex 189.144441325763 37.6231686008103 41.41
    vertex 178.170167844802 73.8004999316076 41.41
  endloop
endfacet
facet normal .881921264348351 .471396736826005 0
  outer loop
    vertex 178.170167844802 73.8004999316076 396
    vertex 160.348914732546 107.14171943783 80.8
    vertex 160.348914732546 107.14171943783 396
  endloop
endfacet
facet normal .881921264348351 .471396736826005 0
  outer loop
    vertex 178.170167844802 73.8004999316076 396
    vertex 178.170167844802 73.8004999316076 80.8
    vertex 160.348914732546 107.14171943783 80.8
  endloop
endfacet
facet normal .773010453362746 .634393284163635 0
  outer loop
    vertex 160.348914732546 107.14171943783 396
    vertex 136.365542751826 136.365542751826 80.8
    vertex 136.365542751826 136.365542751826 396
  endloop
endfacet
facet normal .773010453362746 .634393284163635 0
  outer loop
    vertex 160.348914732546 107.14171943783 396
    vertex 160.348914732546 107.14171943783 80.8
    vertex 136.365542751826 136.365542751826 80.8
  endloop
endfacet
facet normal .634393284163635 .773010453362746 0
  outer loop
    vertex 136.365542751826 136.365542751826 396
    vertex 107.14171943783 160.348914732546 80.8
    vertex 107.14171943783 160.348914732546 396
  endloop
endfacet
facet normal .634393284163635 .773010453362746 0
  outer loop
    vertex 136.365542751826 136.365542751826 396
    vertex 136.365542751826 136.365542751826 80.8
    vertex 107.14171943783 160.348914732546 80.8
  endloop
endfacet
facet normal .471396736826005 .881921264348351 0
  outer loop
    vertex 107.14171943783 160.348914732546 396
    vertex 73.8004999316076 178.170167844802 80.8
    vertex 73.8004999316076 178.170167844802 396
  endloop
endfacet
facet normal .471396736826005 .881921264348351 0
  outer loop
    vertex 107.14171943783 160.348914732546 396
    vertex 107.14171943783 160.348914732546 80.8
    vertex 73.8004999316076 178.170167844802 80.8
  endloop
endfacet
facet normal .290284677254454 .956940335732211 0
  outer loop
    vertex 73.8004999316076 178.170167844802 396
    vertex 37.6231686008103 189.144441325763 41.41
    vertex 37.6231686008103 189.144441325763 396
  endloop
endfacet
facet normal .290284677254454 .956940335732211 0
  outer loop
    vertex 73.8004999316076 178.170167844802 396
    vertex 73.8004999316076 178.170167844802 41.41
    vertex 37.6231686008103 189.144441325763 41.41
  endloop
endfacet
facet normal 9.80171403295601E-02 .995184726672197 0
  outer loop
    vertex 37.6231686008103 189.144441325763 396
    vertex 1.18086567607784E-14 192.85 41.41
    vertex 1.18086567607784E-14 192.85 396
  endloop
endfacet
facet normal 9.80171403295601E-02 .995184726672197 0
  outer loop
    vertex 37.6231686008103 189.144441325763 396
    vertex 37.6231686008103 189.144441325763 41.41
    vertex 1.18086567607784E-14 192.85 41.41
  endloop
endfacet
facet normal -.09801714032956 .995184726672197 0
  outer loop
    vertex 1.18086567607784E-14 192.85 396
    vertex -37.6231686008103 189.144441325763 41.41
    vertex -37.6231686008103 189.144441325763 396
  endloop
endfacet
facet normal -.09801714032956 .995184726672197 0
  outer loop
    vertex 1.18086567607784E-14 192.85 396
    vertex 1.18086567607784E-14 192.85 41.41
    vertex -37.6231686008103 189.144441325763 41.41
  endloop
endfacet
facet normal -.290284677254454 .956940335732211 0
  outer loop
    vertex -37.6231686008103 189.144441325763 396
    vertex -73.8004999316076 178.170167844802 41.41
    vertex -73.8004999316076 178.170167844802 396
  endloop
endfacet
facet normal -.290284677254454 .956940335732211 0
  outer loop
    vertex -37.6231686008103 189.144441325763 396
    vertex -37.6231686008103 189.144441325763 41.41
    vertex -73.8004999316076 178.170167844802 41.41
  endloop
endfacet
facet normal -.471396736826005 .881921264348351 0
  outer loop
    vertex -73.8004999316076 178.170167844802 396
    vertex -107.14171943783 160.348914732546 80.8
    vertex -107.14171943783 160.348914732546 396
  endloop
endfacet
facet normal -.471396736826005 .881921264348351 0
  outer loop
    vertex -73.8004999316076 178.170167844802 396
    vertex -73.8004999316076 178.170167844802 80.8
    vertex -107.14171943783 160.348914732546 80.8
  endloop
endfacet
facet normal -.634393284163635 .773010453362746 0
  outer loop
    vertex -107.14171943783 160.348914732546 396
    vertex -136.365542751826 136.365542751826 80.8
    vertex -136.365542751826 136.365542751826 396
  endloop
endfacet
facet normal -.634393284163635 .773010453362746 0
  outer loop
    vertex -107.14171943783 160.348914732546 396
    vertex -107.14171943783 160.348914732546 80.8
    vertex -136.365542751826 136.365542751826 80.8
  endloop
endfacet
facet normal -.773010453362746 .634393284163635 0
  outer loop
    vertex -136.365542751826 136.365542751826 396
    vertex -160.348914732546 107.14171943783 80.8
    vertex -160.348914732546 107.14171943783 396
  endloop
endfacet
facet normal -.773010453362746 .634393284163635 0
  outer loop
    vertex -136.365542751826 136.365542751826 396
    vertex -136.365542751826 136.365542751826 80.8
    vertex -160.348914732546 107.14171943783 80.8
  endloop
endfacet
facet normal -.881921264348351 .471396736826005 0
  outer loop
    vertex -160.348914732546 107.14171943783 396
    vertex -178.170167844802 73.8004999316076 80.8
    vertex -178.170167844802 73.8004999316076 396
  endloop
endfacet
facet normal -.881921264348351 .471396736826005 0
  outer loop
    vertex -160.348914732546 107.14171943783 396
    vertex -160.348914732546 107.14171943783 80.8
    vertex -178.170167844802 73.8004999316076 80.8
  endloop
endfacet
facet normal -.956940335732211 .290284677254454 0
  outer loop
    vertex -178.170167844802 73.8004999316076 396
    vertex -189.144441325763 37.6231686008103 41.41
    vertex -189.144441325763 37.6231686008103 396
  endloop
endfacet
facet normal -.956940335732211 .290284677254454 0
  outer loop
    vertex -178.170167844802 73.8004999316076 396
    vertex -178.170167844802 73.8004999316076 41.41
    vertex -189.144441325763 37.6231686008103 41.41
  endloop
endfacet
facet normal -.995184726672197 .09801714032956 0
  outer loop
    vertex -189.144441325763 37.6231686008103 396
    vertex -192.85 0 41.41
    vertex -192.85 0 396
  endloop
endfacet
facet normal -.995184726672197 .09801714032956 0
  outer loop
    vertex -189.144441325763 37.6231686008103 396
    vertex -189.144441325763 37.6231686008103 41.41
    vertex -192.85 0 41.41
  endloop
endfacet
facet normal 0 0 1
  outer loop
    vertex -73.8004999316076 -203 80.8
    vertex -73.8004999316076 -178.170167844802 80.8
    vertex -138.400249965804 -203 80.8
  endloop
endfacet
facet normal 0 0 1
  outer loop
    vertex -138.400249965804 -203 80.8
    vertex -73.8004999316076 -178.170167844802 80.8
    vertex -107.14171943783 -160.348914732546 80.8
  endloop
endfacet
facet normal 0 0 1
  outer loop
    vertex -138.400249965804 -203 80.8
    vertex -107.14171943783 -160.348914732546 80.8
    vertex -136.365542751826 -136.365542751826 80.8
  endloop
endfacet
facet normal 0 0 1
  outer loop
    vertex -138.400249965804 -203 80.8
    vertex -136.365542751826 -136.365542751826 80.8
    vertex -203 -138.400249965804 80.8
  endloop
endfacet
facet normal 0 0 1
  outer loop
    vertex -203 -138.400249965804 80.8
    vertex -136.365542751826 -136.365542751826 80.8
    vertex -160.348914732546 -107.14171943783 80.8
  endloop
endfacet
facet normal 0 0 1
  outer loop
    vertex -203 -138.400249965804 80.8
    vertex -160.348914732546 -107.14171943783 80.8
    vertex -178.170167844802 -73.8004999316076 80.8
  endloop
endfacet
facet normal 0 0 1
  outer loop
    vertex -203 -138.400249965804 80.8
    vertex -178.170167844802 -73.8004999316076 80.8
    vertex -203 -73.8004999316076 80.8
  endloop
endfacet
facet normal 0 0 1
  outer loop
    vertex -203 73.8004999316076 80.8
    vertex -178.170167844802 73.8004999316076 80.8
    vertex -203 138.400249965804 80.8
  endloop
endfacet
facet normal 0 0 1
  outer loop
    vertex -203 138.400249965804 80.8
    vertex -178.170167844802 73.8004999316076 80.8
    vertex -160.348914732546 107.14171943783 80.8
  endloop
endfacet
facet normal 0 0 1
  outer loop
    vertex -203 138.400249965804 80.8
    vertex -160.348914732546 107.14171943783 80.8
    vertex -136.365542751826 136.365542751826 80.8
  endloop
endfacet
facet normal 0 0 1
  outer loop
    vertex -203 138.400249965804 80.8
    vertex -136.365542751826 136.365542751826 80.8
    vertex -138.400249965804 203 80.8
  endloop
endfacet
facet normal 0 0 1
  outer loop
    vertex -138.400249965804 203 80.8
    vertex -136.365542751826 136.365542751826 80.8
    vertex -107.14171943783 160.348914732546 80.8
  endloop
endfacet
facet normal 0 0 1
  outer loop
    vertex -138.400249965804 203 80.8
    vertex -107.14171943783 160.348914732546 80.8
    vertex -73.8004999316076 178.170167844802 80.8
  endloop
endfacet
facet normal 0 0 1
  outer loop
    vertex -138.400249965804 203 80.8
    vertex -73.8004999316076 178.170167844802 80.8
    vertex -73.8004999316076 203 80.8
  endloop
endfacet
facet normal 0 0 1
  outer loop
    vertex 203 203 80.8
    vertex 73.8004999316076 203 80.8
    vertex 73.8004999316076 178.170167844802 80.8
  endloop
endfacet
facet normal 0 0 1
  outer loop
    vertex 203 203 80.8
    vertex 73.8004999316076 178.170167844802 80.8
    vertex 107.14171943783 160.348914732546 80.8
  endloop
endfacet
facet normal 0 0 1
  outer loop
    vertex 203 203 80.8
    vertex 107.14171943783 160.348914732546 80.8
    vertex 136.365542751826 136.365542751826 80.8
  endloop
endfacet
facet normal 0 0 1
  outer loop
    vertex 203 203 80.8
    vertex 136.365542751826 136.365542751826 80.8
    vertex 160.348914732546 107.14171943783 80.8
  endloop
endfacet
facet normal 0 0 1
  outer loop
    vertex 203 203 80.8
    vertex 160.348914732546 107.14171943783 80.8
    vertex 178.170167844802 73.8004999316076 80.8
  endloop
endfacet
facet normal 0 0 1
  outer loop
    vertex 203 203 80.8
    vertex 178.170167844802 73.8004999316076 80.8
    vertex 203 73.8004999316076 80.8
  endloop
endfacet
facet normal 0 0 1
  outer loop
    vertex 203 -203 80.8
    vertex 203 -73.8004999316076 80.8
    vertex 178.170167844802 -73.8004999316076 80.8
  endloop
endfacet
facet normal 0 0 1
  outer loop
    vertex 203 -203 80.8
    vertex 178.170167844802 -73.8004999316076 80.8
    vertex 160.348914732546 -107.14171943783 80.8
  endloop
endfacet
facet normal 0 0 1
  outer loop
    vertex 203 -203 80.8
    vertex 160.348914732546 -107.14171943783 80.8
    vertex 136.365542751826 -136.365542751826 80.8
  endloop
endfacet
facet normal 0 0 1
  outer loop
    vertex 203 -203 80.8
    vertex 136.365542751826 -136.365542751826 80.8
    vertex 107.14171943783 -160.348914732546 80.8
  endloop
endfacet
facet normal 0 0 1
  outer loop
    vertex 203 -203 80.8
    vertex 107.14171943783 -160.348914732546 80.8
    vertex 73.8004999316076 -178.170167844802 80.8
  endloop
endfacet
facet normal 0 0 1
  outer loop
    vertex 203 -203 80.8
    vertex 73.8004999316076 -178.170167844802 80.8
    vertex 73.8004999316076 -203 80.8
  endloop
endfacet
facet normal 0 0 -1
  outer loop
    vertex 203 203 2
    vertex -203 138.400249965804 2
    vertex -138.400249965804 203 2
  endloop
endfacet
facet normal 0 0 -1
  outer loop
    vertex 203 203 2
    vertex -203 -138.400249965804 2
    vertex -203 138.400249965804 2
  endloop
endfacet
facet normal 0 0 -1
  outer loop
    vertex 203 203 2
    vertex -138.400249965804 -203 2
    vertex -203 -138.400249965804 2
  endloop
endfacet
facet normal 0 0 -1
  outer loop
    vertex 203 203 2
    vertex 203 -203 2
    vertex -138.400249965804 -203 2
  endloop
endfacet
facet normal -1 0 0
  outer loop
    vertex -203 138.400249965804 80.8
    vertex -203 138.400249965804 2
    vertex -203 73.8004999316076 80.8
  endloop
endfacet
facet normal -1 0 0
  outer loop
    vertex -203 73.8004999316076 80.8
    vertex -203 138.400249965804 2
    vertex -203 73.8004999316076 41.4
  endloop
endfacet
facet normal -1 0 0
  outer loop
    vertex -203 138.400249965804 2
    vertex -203 -73.8004999316076 41.4
    vertex -203 73.8004999316076 41.4
  endloop
endfacet
facet normal -1 0 0
  outer loop
    vertex -203 138.400249965804 2
    vertex -203 -138.400249965804 2
    vertex -203 -73.8004999316076 41.4
  endloop
endfacet
facet normal -1 0 0
  outer loop
    vertex -203 -138.400249965804 2
    vertex -203 -138.400249965804 80.8
    vertex -203 -73.8004999316076 41.4
  endloop
endfacet
facet normal -1 0 0
  outer loop
    vertex -203 -73.8004999316076 80.8
    vertex -203 -73.8004999316076 41.4
    vertex -203 -138.400249965804 80.8
  endloop
endfacet
facet normal 0 1 0
  outer loop
    vertex 203 203 80.8
    vertex 203 203 2
    vertex 73.8004999316076 203 80.8
  endloop
endfacet
facet normal 0 1 0
  outer loop
    vertex 203 203 2
    vertex 73.8004999316076 203 41.4
    vertex 73.8004999316076 203 80.8
  endloop
endfacet
facet normal 0 1 0
  outer loop
    vertex 203 203 2
    vertex -73.8004999316076 203 41.4
    vertex 73.8004999316076 203 41.4
  endloop
endfacet
facet normal 0 1 0
  outer loop
    vertex 203 203 2
    vertex -138.400249965804 203 2
    vertex -73.8004999316076 203 41.4
  endloop
endfacet
facet normal 0 1 0
  outer loop
    vertex -138.400249965804 203 2
    vertex -138.400249965804 203 80.8
    vertex -73.8004999316076 203 41.4
  endloop
endfacet
facet normal 0 1 0
  outer loop
    vertex -73.8004999316076 203 80.8
    vertex -73.8004999316076 203 41.4
    vertex -138.400249965804 203 80.8
  endloop
endfacet
facet normal 1 0 0
  outer loop
    vertex 203 -203 80.8
    vertex 203 -203 2
    vertex 203 -73.8004999316076 80.8
  endloop
endfacet
facet normal 1 0 0
  outer loop
    vertex 203 -203 2
    vertex 203 -73.8004999316076 41.4
    vertex 203 -73.8004999316076 80.8
  endloop
endfacet
facet normal 1 0 0
  outer loop
    vertex 203 -203 2
    vertex 203 73.8004999316076 41.4
    vertex 203 -73.8004999316076 41.4
  endloop
endfacet
facet normal 1 0 0
  outer loop
    vertex 203 -203 2
    vertex 203 203 2
    vertex 203 73.8004999316076 41.4
  endloop
endfacet
facet normal 1 0 0
  outer loop
    vertex 203 203 2
    vertex 203 203 80.8
    vertex 203 73.8004999316076 41.4
  endloop
endfacet
facet normal 1 0 0
  outer loop
    vertex 203 73.8004999316076 80.8
    vertex 203 73.8004999316076 41.4
    vertex 203 203 80.8
  endloop
endfacet
facet normal 0 -1 0
  outer loop
    vertex -138.400249965804 -203 80.8
    vertex -138.400249965804 -203 2
    vertex -73.8004999316076 -203 80.8
  endloop
endfacet
facet normal 0 -1 0
  outer loop
    vertex -138.400249965804 -203 2
    vertex -73.8004999316076 -203 41.4
    vertex -73.8004999316076 -203 80.8
  endloop
endfacet
facet normal 0 -1 0
  outer loop
    vertex -138.400249965804 -203 2
    vertex 73.8004999316076 -203 41.4
    vertex -73.8004999316076 -203 41.4
  endloop
endfacet
facet normal 0 -1 0
  outer loop
    vertex -138.400249965804 -203 2
    vertex 203 -203 2
    vertex 73.8004999316076 -203 41.4
  endloop
endfacet
facet normal 0 -1 0
  outer loop
    vertex 203 -203 2
    vertex 203 -203 80.8
    vertex 73.8004999316076 -203 41.4
  endloop
endfacet
facet normal 0 -1 0
  outer loop
    vertex 73.8004999316076 -203 80.8
    vertex 73.8004999316076 -203 41.4
    vertex 203 -203 80.8
  endloop
endfacet
facet normal -.707106781186548 -.707106781186548 0
  outer loop
    vertex -203 -138.400249965804 80.8
    vertex -138.400249965804 -203 2
    vertex -138.400249965804 -203 80.8
  endloop
endfacet
facet normal -.707106781186548 -.707106781186548 0
  outer loop
    vertex -203 -138.400249965804 80.8
    vertex -203 -138.400249965804 2
    vertex -138.400249965804 -203 2
  endloop
endfacet
facet normal -.707106781186548 .707106781186548 0
  outer loop
    vertex -138.400249965804 203 80.8
    vertex -203 138.400249965804 2
    vertex -203 138.400249965804 80.8
  endloop
endfacet
facet normal -.707106781186548 .707106781186548 0
  outer loop
    vertex -138.400249965804 203 80.8
    vertex -138.400249965804 203 2
    vertex -203 138.400249965804 2
  endloop
endfacet
facet normal 0 1 0
  outer loop
    vertex -178.170167844802 -73.8004999316076 80.8
    vertex -178.170167844802 -73.8004999316076 41.41
    vertex -203 -73.8004999316076 80.8
  endloop
endfacet
facet normal 0 1 0
  outer loop
    vertex -178.170167844802 -73.8004999316076 41.41
    vertex -203 -73.8004999316076 41.4
    vertex -203 -73.8004999316076 80.8
  endloop
endfacet
facet normal 0 -1 0
  outer loop
    vertex -203 73.8004999316076 80.8
    vertex -178.170167844802 73.8004999316076 41.41
    vertex -178.170167844802 73.8004999316076 80.8
  endloop
endfacet
facet normal 0 -1 0
  outer loop
    vertex -178.170167844802 73.8004999316076 41.41
    vertex -203 73.8004999316076 80.8
    vertex -203 73.8004999316076 41.4
  endloop
endfacet
facet normal 1 0 0
  outer loop
    vertex -73.8004999316076 178.170167844802 80.8
    vertex -73.8004999316076 178.170167844802 41.41
    vertex -73.8004999316076 203 80.8
  endloop
endfacet
facet normal 1 0 0
  outer loop
    vertex -73.8004999316076 178.170167844802 41.41
    vertex -73.8004999316076 203 41.4
    vertex -73.8004999316076 203 80.8
  endloop
endfacet
facet normal -1 0 0
  outer loop
    vertex 73.8004999316076 203 80.8
    vertex 73.8004999316076 178.170167844802 41.41
    vertex 73.8004999316076 178.170167844802 80.8
  endloop
endfacet
facet normal -1 0 0
  outer loop
    vertex 73.8004999316076 178.170167844802 41.41
    vertex 73.8004999316076 203 80.8
    vertex 73.8004999316076 203 41.4
  endloop
endfacet
facet normal 0 -1 0
  outer loop
    vertex 178.170167844802 73.8004999316076 80.8
    vertex 178.170167844802 73.8004999316076 41.41
    vertex 203 73.8004999316076 80.8
  endloop
endfacet
facet normal 0 -1 0
  outer loop
    vertex 178.170167844802 73.8004999316076 41.41
    vertex 203 73.8004999316076 41.4
    vertex 203 73.8004999316076 80.8
  endloop
endfacet
facet normal 0 1 0
  outer loop
    vertex 203 -73.8004999316076 80.8
    vertex 178.170167844802 -73.8004999316076 41.41
    vertex 178.170167844802 -73.8004999316076 80.8
  endloop
endfacet
facet normal 0 1 0
  outer loop
    vertex 178.170167844802 -73.8004999316076 41.41
    vertex 203 -73.8004999316076 80.8
    vertex 203 -73.8004999316076 41.4
  endloop
endfacet
facet normal -1 0 0
  outer loop
    vertex 73.8004999316076 -178.170167844802 80.8
    vertex 73.8004999316076 -178.170167844802 41.41
    vertex 73.8004999316076 -203 80.8
  endloop
endfacet
facet normal -1 0 0
  outer loop
    vertex 73.8004999316076 -178.170167844802 41.41
    vertex 73.8004999316076 -203 41.4
    vertex 73.8004999316076 -203 80.8
  endloop
endfacet
facet normal 1 0 0
  outer loop
    vertex -73.8004999316076 -203 80.8
    vertex -73.8004999316076 -178.170167844802 41.41
    vertex -73.8004999316076 -178.170167844802 80.8
  endloop
endfacet
facet normal 1 0 0
  outer loop
    vertex -73.8004999316076 -178.170167844802 41.41
    vertex -73.8004999316076 -203 80.8
    vertex -73.8004999316076 -203 41.4
  endloop
endfacet
facet normal 1.22170240558173E-04 4.02741309400026E-04 .999999911436931
  outer loop
    vertex 73.8004999316076 203 41.4
    vertex 37.6231686008103 189.144441325763 41.41
    vertex 73.8004999316076 178.170167844802 41.41
  endloop
endfacet
facet normal 5.65434293298279E-05 5.74095072285467E-04 .99999983360883
  outer loop
    vertex 73.8004999316076 203 41.4
    vertex 1.18086567607784E-14 192.85 41.41
    vertex 37.6231686008103 189.144441325763 41.41
  endloop
endfacet
facet normal -5.65434293298279E-05 5.74095072285467E-04 .99999983360883
  outer loop
    vertex -73.8004999316076 203 41.4
    vertex -37.6231686008103 189.144441325763 41.41
    vertex 1.18086567607784E-14 192.85 41.41
  endloop
endfacet
facet normal -1.22170240558173E-04 4.02741309400026E-04 .999999911436931
  outer loop
    vertex -73.8004999316076 203 41.4
    vertex -73.8004999316076 178.170167844802 41.41
    vertex -37.6231686008103 189.144441325763 41.41
  endloop
endfacet
facet normal 0 9.85221196718502E-04 .999999514669479
  outer loop
    vertex 73.8004999316076 203 41.4
    vertex -73.8004999316076 203 41.4
    vertex 1.18086567607784E-14 192.85 41.41
  endloop
endfacet
facet normal -4.02741309400026E-04 1.22170240558173E-04 .999999911436931
  outer loop
    vertex -203 73.8004999316076 41.4
    vertex -189.144441325763 37.6231686008103 41.41
    vertex -178.170167844802 73.8004999316076 41.41
  endloop
endfacet
facet normal -5.74095072285467E-04 5.65434293298279E-05 .99999983360883
  outer loop
    vertex -203 73.8004999316076 41.4
    vertex -192.85 0 41.41
    vertex -189.144441325763 37.6231686008103 41.41
  endloop
endfacet
facet normal -5.74095072285467E-04 -5.65434293298279E-05 .99999983360883
  outer loop
    vertex -203 -73.8004999316076 41.4
    vertex -189.144441325763 -37.6231686008103 41.41
    vertex -192.85 0 41.41
  endloop
endfacet
facet normal -4.02741309400026E-04 -1.22170240558173E-04 .999999911436931
  outer loop
    vertex -203 -73.8004999316076 41.4
    vertex -178.170167844802 -73.8004999316076 41.41
    vertex -189.144441325763 -37.6231686008103 41.41
  endloop
endfacet
facet normal -9.85221196718502E-04 0 .999999514669479
  outer loop
    vertex -203 73.8004999316076 41.4
    vertex -203 -73.8004999316076 41.4
    vertex -192.85 0 41.41
  endloop
endfacet
facet normal -1.22170240558173E-04 -4.02741309400026E-04 .999999911436931
  outer loop
    vertex -73.8004999316076 -203 41.4
    vertex -37.6231686008103 -189.144441325763 41.41
    vertex -73.8004999316076 -178.170167844802 41.41
  endloop
endfacet
facet normal -5.65434293298279E-05 -5.74095072285467E-04 .99999983360883
  outer loop
    vertex -73.8004999316076 -203 41.4
    vertex -1.18086567607784E-14 -192.85 41.41
    vertex -37.6231686008103 -189.144441325763 41.41
  endloop
endfacet
facet normal 5.65434293298279E-05 -5.74095072285467E-04 .99999983360883
  outer loop
    vertex 73.8004999316076 -203 41.4
    vertex 37.6231686008103 -189.144441325763 41.41
    vertex -1.18086567607784E-14 -192.85 41.41
  endloop
endfacet
facet normal 1.22170240558173E-04 -4.02741309400026E-04 .999999911436931
  outer loop
    vertex 73.8004999316076 -203 41.4
    vertex 73.8004999316076 -178.170167844802 41.41
    vertex 37.6231686008103 -189.144441325763 41.41
  endloop
endfacet
facet normal 0 -9.85221196718502E-04 .999999514669479
  outer loop
    vertex -73.8004999316076 -203 41.4
    vertex 73.8004999316076 -203 41.4
    vertex -1.18086567607784E-14 -192.85 41.41
  endloop
endfacet
facet normal 4.02741309400026E-04 -1.22170240558173E-04 .999999911436931
  outer loop
    vertex 203 -73.8004999316076 41.4
    vertex 189.144441325763 -37.6231686008103 41.41
    vertex 178.170167844802 -73.8004999316076 41.41
  endloop
endfacet
facet normal 5.74095072285467E-04 -5.65434293298279E-05 .99999983360883
  outer loop
    vertex 203 -73.8004999316076 41.4
    vertex 192.85 0 41.41
    vertex 189.144441325763 -37.6231686008103 41.41
  endloop
endfacet
facet normal 5.74095072285467E-04 5.65434293298279E-05 .99999983360883
  outer loop
    vertex 203 73.8004999316076 41.4
    vertex 189.144441325763 37.6231686008103 41.41
    vertex 192.85 0 41.41
  endloop
endfacet
facet normal 4.02741309400026E-04 1.22170240558173E-04 .999999911436931
  outer loop
    vertex 203 73.8004999316076 41.4
    vertex 178.170167844802 73.8004999316076 41.41
    vertex 189.144441325763 37.6231686008103 41.41
  endloop
endfacet
facet normal 9.85221196718502E-04 0 .999999514669479
  outer loop
    vertex 203 -73.8004999316076 41.4
    vertex 203 73.8004999316076 41.4
    vertex 192.85 0 41.41
  endloop
endfacet
facet normal 1 0 0
  outer loop
    vertex 220.5 -21.5 0
    vertex 220.5 21.5 10
    vertex 220.5 -21.5 10
  endloop
endfacet
facet normal 1 0 0
  outer loop
    vertex 220.5 -21.5 0
    vertex 220.5 21.5 0
    vertex 220.5 21.5 10
  endloop
endfacet
facet normal 0 1 0
  outer loop
    vertex 220.5 21.5 10
    vertex 220.5 21.5 0
    vertex 203 21.5 10
  endloop
endfacet
facet normal 0 1 0
  outer loop
    vertex 203 21.5 10
    vertex 220.5 21.5 0
    vertex 203 21.5 2
  endloop
endfacet
facet normal 0 1 0
  outer loop
    vertex 203 21.5 2
    vertex 220.5 21.5 0
    vertex 90.5 21.5 2
  endloop
endfacet
facet normal 0 1 0
  outer loop
    vertex 90.5 21.5 0
    vertex 90.5 21.5 2
    vertex 220.5 21.5 0
  endloop
endfacet
facet normal -1 0 0
  outer loop
    vertex 90.5 21.5 0
    vertex 90.5 -21.5 2
    vertex 90.5 21.5 2
  endloop
endfacet
facet normal -1 0 0
  outer loop
    vertex 90.5 21.5 0
    vertex 90.5 -21.5 0
    vertex 90.5 -21.5 2
  endloop
endfacet
facet normal 0 -1 0
  outer loop
    vertex 203 -21.5 2
    vertex 90.5 -21.5 2
    vertex 90.5 -21.5 0
  endloop
endfacet
facet normal 0 -1 0
  outer loop
    vertex 203 -21.5 2
    vertex 90.5 -21.5 0
    vertex 220.5 -21.5 0
  endloop
endfacet
facet normal 0 -1 0
  outer loop
    vertex 203 -21.5 2
    vertex 220.5 -21.5 10
    vertex 203 -21.5 10
  endloop
endfacet
facet normal 0 -1 0
  outer loop
    vertex 203 -21.5 2
    vertex 220.5 -21.5 0
    vertex 220.5 -21.5 10
  endloop
endfacet
facet normal -1 0 0
  outer loop
    vertex 203 21.5 10
    vertex 203 -21.5 2
    vertex 203 -21.5 10
  endloop
endfacet
facet normal -1 0 0
  outer loop
    vertex 203 21.5 10
    vertex 203 21.5 2
    vertex 203 -21.5 2
  endloop
endfacet
facet normal 0 0 1
  outer loop
    vertex 220.5 -21.5 10
    vertex 220.5 21.5 10
    vertex 203 -21.5 10
  endloop
endfacet
facet normal 0 0 1
  outer loop
    vertex 203 -21.5 10
    vertex 220.5 21.5 10
    vertex 203 21.5 10
  endloop
endfacet
facet normal 0 0 1
  outer loop
    vertex 203 -21.5 2
    vertex 203 21.5 2
    vertex 90.5 -21.5 2
  endloop
endfacet
facet normal 0 0 1
  outer loop
    vertex 203 21.5 2
    vertex 90.5 21.5 2
    vertex 90.5 -21.5 2
  endloop
endfacet
facet normal 0 0 -1
  outer loop
    vertex 220.5 -21.5 0
    vertex 90.5 -21.5 0
    vertex 220.5 21.5 0
  endloop
endfacet
facet normal 0 0 -1
  outer loop
    vertex 220.5 21.5 0
    vertex 90.5 -21.5 0
    vertex 90.5 21.5 0
  endloop
endfacet
facet normal -1 0 0
  outer loop
    vertex -220.5 21.5 0
    vertex -220.5 -21.5 10
    vertex -220.5 21.5 10
  endloop
endfacet
facet normal -1 0 0
  outer loop
    vertex -220.5 21.5 0
    vertex -220.5 -21.5 0
    vertex -220.5 -21.5 10
  endloop
endfacet
facet normal 0 -1 0
  outer loop
    vertex -220.5 -21.5 10
    vertex -220.5 -21.5 0
    vertex -203 -21.5 10
  endloop
endfacet
facet normal 0 -1 0
  outer loop
    vertex -203 -21.5 10
    vertex -220.5 -21.5 0
    vertex -203 -21.5 2
  endloop
endfacet
facet normal 0 -1 0
  outer loop
    vertex -203 -21.5 2
    vertex -220.5 -21.5 0
    vertex -90.5 -21.5 2
  endloop
endfacet
facet normal 0 -1 0
  outer loop
    vertex -90.5 -21.5 0
    vertex -90.5 -21.5 2
    vertex -220.5 -21.5 0
  endloop
endfacet
facet normal 1 0 0
  outer loop
    vertex -90.5 -21.5 0
    vertex -90.5 21.5 2
    vertex -90.5 -21.5 2
  endloop
endfacet
facet normal 1 0 0
  outer loop
    vertex -90.5 -21.5 0
    vertex -90.5 21.5 0
    vertex -90.5 21.5 2
  endloop
endfacet
facet normal 0 1 0
  outer loop
    vertex -203 21.5 2
    vertex -90.5 21.5 2
    vertex -90.5 21.5 0
  endloop
endfacet
facet normal 0 1 0
  outer loop
    vertex -203 21.5 2
    vertex -90.5 21.5 0
    vertex -220.5 21.5 0
  endloop
endfacet
facet normal 0 1 0
  outer loop
    vertex -203 21.5 2
    vertex -220.5 21.5 10
    vertex -203 21.5 10
  endloop
endfacet
facet normal 0 1 0
  outer loop
    vertex -203 21.5 2
    vertex -220.5 21.5 0
    vertex -220.5 21.5 10
  endloop
endfacet
facet normal 1 0 0
  outer loop
    vertex -203 -21.5 10
    vertex -203 21.5 2
    vertex -203 21.5 10
  endloop
endfacet
facet normal 1 0 0
  outer loop
    vertex -203 -21.5 10
    vertex -203 -21.5 2
    vertex -203 21.5 2
  endloop
endfacet
facet normal 0 0 1
  outer loop
    vertex -220.5 21.5 10
    vertex -220.5 -21.5 10
    vertex -203 21.5 10
  endloop
endfacet
facet normal 0 0 1
  outer loop
    vertex -203 21.5 10
    vertex -220.5 -21.5 10
    vertex -203 -21.5 10
  endloop
endfacet
facet normal 0 0 1
  outer loop
    vertex -203 21.5 2
    vertex -203 -21.5 2
    vertex -90.5 21.5 2
  endloop
endfacet
facet normal 0 0 1
  outer loop
    vertex -203 -21.5 2
    vertex -90.5 -21.5 2
    vertex -90.5 21.5 2
  endloop
endfacet
facet normal 0 0 -1
  outer loop
    vertex -220.5 21.5 0
    vertex -90.5 21.5 0
    vertex -220.5 -21.5 0
  endloop
endfacet
facet normal 0 0 -1
  outer loop
    vertex -220.5 -21.5 0
    vertex -90.5 21.5 0
    vertex -90.5 -21.5 0
  endloop
endfacet
endsolid CAP_PC_10X10-L
